<?xml version="1.0" standalone="no"?>
<!DOCTYPE svg PUBLIC "-//W3C//DTD SVG 20010904//EN"
 "http://www.w3.org/TR/2001/REC-SVG-20010904/DTD/svg10.dtd">
<svg version="1.0" xmlns="http://www.w3.org/2000/svg"
 width="256.000000pt" height="256.000000pt" viewBox="0 0 256.000000 256.000000"
 preserveAspectRatio="xMidYMid meet">

<g transform="translate(0.000000,256.000000) scale(0.100000,-0.100000)"
fill="#000000" stroke="none">
<path d="M213 2385 c-36 -15 -55 -58 -41 -95 5 -14 230 -247 501 -517 l492
-493 -503 -503 c-458 -458 -502 -505 -502 -535 0 -44 38 -82 82 -82 30 0 77
44 535 502 l503 503 503 -503 c458 -458 505 -502 535 -502 44 0 82 38 82 82 0
30 -44 77 -502 535 l-503 503 503 503 c458 458 502 505 502 535 0 44 -38 82
-82 82 -30 0 -77 -44 -535 -502 l-503 -503 -493 492 c-270 271 -503 496 -517
502 -18 6 -35 5 -57 -4z"/>
</g>
</svg>
